<svg version="1.1" viewBox="0.0 0.0 425.99212598425197 280.8976377952756" fill="none" stroke="none" stroke-linecap="square" stroke-miterlimit="10" xmlns:xlink="http://www.w3.org/1999/xlink" xmlns="http://www.w3.org/2000/svg"><clipPath id="p.0"><path d="m0 0l425.99213 0l0 280.89764l-425.99213 0l0 -280.89764z" clip-rule="nonzero"/></clipPath><g clip-path="url(#p.0)"><path fill="#000000" fill-opacity="0.0" d="m0 0l425.99213 0l0 280.89764l-425.99213 0z" fill-rule="evenodd"/><path fill="#666666" d="m243.25034 46.367447l-10.980331 2.2373695l-3.661087 7.457901l2.745819 7.455494l10.980316 6.7121124l21.966553 6.7121124l22.878876 5.2205276l-32.0316 -30.574986z" fill-rule="evenodd"/><path stroke="#ffffff" stroke-width="8.0" stroke-linejoin="round" stroke-linecap="butt" d="m243.25034 46.367447l-10.980331 2.2373695l-3.661087 7.457901l2.745819 7.455494l10.980316 6.7121124l21.966553 6.7121124l22.878876 5.2205276l-32.0316 -30.574986z" fill-rule="evenodd"/><path fill="#666666" d="m204.2021 211.51968l-8.950134 4.881897l-15.456696 0l-10.577423 4.0682373l-1.6273041 9.761154l6.509186 7.32283l21.965881 -0.8136444l17.897644 -9.761154z" fill-rule="evenodd"/><path stroke="#ffffff" stroke-width="8.0" stroke-linejoin="round" stroke-linecap="butt" d="m204.2021 211.51968l-8.950134 4.881897l-15.456696 0l-10.577423 4.0682373l-1.6273041 9.761154l6.509186 7.32283l21.965881 -0.8136444l17.897644 -9.761154z" fill-rule="evenodd"/><path fill="#666666" d="m250.00525 17.485565l13.879272 1.0078735l14.750641 14.102364l11.275604 20.149605l11.280823 11.081364l39.039368 25.183727l10.412079 36.267715l-10.412079 13.099747l-19.086609 -2.0157623l-18.217834 6.044632l-9.543304 13.094482l-7.8084106 15.1154785l-22.559052 19.139114l-8.671921 4.0288696l4.3648224 -18.060364l-8.9474945 -28.475067l-15.37532 -19.955383l-32.96588 -10.076111l28.816269 22.708664l15.456696 39.05249l-8.13649 33.354324l12.204727 -5.695526l54.034134 -2.779541l17.34906 10.076126l-4.3359375 9.065613l-36.13388 0.724411l-15.456696 0.8136444l-37.769012 8.538055l-7.81102 -18.136475l-9.54332 -10.073502l-8.67453 -4.0288696l-37.3071 -14.10498l-16.482925 -18.13124l-5.204727 -25.18634l-0.8687744 -26.196854l13.015747 -23.167984l16.48294 -14.102356l24.291336 -4.031502l19.952759 0l25.16011 9.06562l18.223083 12.089241l19.084015 6.0446167l12.144348 -16.11811l-1.0997314 -10.527557l-22.779541 -20.338585l-21.152222 -23.593174z" fill-rule="evenodd"/><path stroke="#ffffff" stroke-width="8.0" stroke-linejoin="round" stroke-linecap="butt" d="m250.00525 17.485565l13.879272 1.0078735l14.750641 14.102364l11.275604 20.149605l11.280823 11.081364l39.039368 25.183727l10.412079 36.267715l-10.412079 13.099747l-19.086609 -2.0157623l-18.217834 6.044632l-9.543304 13.094482l-7.8084106 15.1154785l-22.559052 19.139114l-8.671921 4.0288696l4.3648224 -18.060364l-8.9474945 -28.475067l-15.37532 -19.955383l-32.96588 -10.076111l28.816269 22.708664l15.456696 39.05249l-8.13649 33.354324l12.204727 -5.695526l54.034134 -2.779541l17.34906 10.076126l-4.3359375 9.065613l-36.13388 0.724411l-15.456696 0.8136444l-37.769012 8.538055l-7.81102 -18.136475l-9.54332 -10.073502l-8.67453 -4.0288696l-37.3071 -14.10498l-16.482925 -18.13124l-5.204727 -25.18634l-0.8687744 -26.196854l13.015747 -23.167984l16.48294 -14.102356l24.291336 -4.031502l19.952759 0l25.16011 9.06562l18.223083 12.089241l19.084015 6.0446167l12.144348 -16.11811l-1.0997314 -10.527557l-22.779541 -20.338585l-21.152222 -23.593174z" fill-rule="evenodd"/><defs><radialGradient id="p.1" gradientUnits="userSpaceOnUse" gradientTransform="matrix(6.6899954257033505 0.0 0.0 6.6899954257033505 0.0 0.0)" spreadMethod="pad" cx="16.295143532789016" cy="14.652270414211593" fx="16.295143532789016" fy="14.652270414211593" r="6.689995288848877"><stop offset="0.0" stop-color="#ffffff"/><stop offset="1.0" stop-color="#b3b3b3"/></radialGradient></defs><path fill="url(#p.1)" d="m152.94751 97.6168l-67.76641 -3.254593l-10.910759 -4.8818893l-7.4671936 2.4409409l-1.7217789 8.950134l4.5957947 5.6955414l8.039375 0l6.889763 -4.881897l22.396324 0l41.06299 4.881897z" fill-rule="evenodd"/><path stroke="#ffffff" stroke-width="4.0" stroke-linejoin="round" stroke-linecap="butt" d="m152.94751 97.6168l-67.76641 -3.254593l-10.910759 -4.8818893l-7.4671936 2.4409409l-1.7217789 8.950134l4.5957947 5.6955414l8.039375 0l6.889763 -4.881897l22.396324 0l41.06299 4.881897z" fill-rule="evenodd"/><defs><radialGradient id="p.2" gradientUnits="userSpaceOnUse" gradientTransform="matrix(6.941123864355691 0.0 0.0 6.941123864355691 0.0 0.0)" spreadMethod="pad" cx="13.679502406126325" cy="17.815573875853225" fx="13.679502406126325" fy="17.815573875853225" r="6.941123962402344"><stop offset="0.0" stop-color="#ffffff"/><stop offset="1.0" stop-color="#b3b3b3"/></radialGradient></defs><path fill="url(#p.2)" d="m142.3668 122.437004l-73.06788 -2.4383163l-11.815559 -4.8818893l-8.082321 2.4409409l-1.865612 8.950134l4.974968 5.6955414l8.704193 0l7.4624596 -4.8818893l24.24897 0l49.44078 2.4383163z" fill-rule="evenodd"/><path stroke="#ffffff" stroke-width="4.0" stroke-linejoin="round" stroke-linecap="butt" d="m142.3668 122.437004l-73.06788 -2.4383163l-11.815559 -4.8818893l-8.082321 2.4409409l-1.865612 8.950134l4.974968 5.6955414l8.704193 0l7.4624596 -4.8818893l24.24897 0l49.44078 2.4383163z" fill-rule="evenodd"/><defs><radialGradient id="p.3" gradientUnits="userSpaceOnUse" gradientTransform="matrix(6.6899954257033505 0.0 0.0 6.6899954257033505 0.0 0.0)" spreadMethod="pad" cx="17.510967722513538" cy="26.45113994689158" fx="17.510967722513538" fy="26.45113994689158" r="6.689995288848877"><stop offset="0.0" stop-color="#ffffff"/><stop offset="1.0" stop-color="#b3b3b3"/></radialGradient></defs><path fill="url(#p.3)" d="m154.5748 175.72441l-62.139107 -2.427826l-10.435692 -4.8818817l-7.1364822 2.4409332l-1.6482925 8.950134l4.3936996 5.6955414l7.68766 0l6.5905533 -4.881897l21.414696 0l47.779526 3.2388458z" fill-rule="evenodd"/><path stroke="#ffffff" stroke-width="4.0" stroke-linejoin="round" stroke-linecap="butt" d="m154.5748 175.72441l-62.139107 -2.427826l-10.435692 -4.8818817l-7.1364822 2.4409332l-1.6482925 8.950134l4.3936996 5.6955414l7.68766 0l6.5905533 -4.881897l21.414696 0l47.779526 3.2388458z" fill-rule="evenodd"/><defs><radialGradient id="p.4" gradientUnits="userSpaceOnUse" gradientTransform="matrix(7.913504233499146 0.0 0.0 7.913504233499146 0.0 0.0)" spreadMethod="pad" cx="10.151257726926696" cy="17.63124530755546" fx="10.151257726926696" fy="17.63124530755546" r="7.913504123687744"><stop offset="0.0" stop-color="#ffffff"/><stop offset="1.0" stop-color="#b3b3b3"/></radialGradient></defs><path fill="url(#p.4)" d="m142.37007 138.30183l-95.60104 -2.438324l-15.459316 -4.8818817l-10.574802 2.4409485l-2.4409466 8.950119l6.5091877 5.6955414l11.388451 0l9.763779 -4.8818817l31.727032 0l64.68766 2.4383087z" fill-rule="evenodd"/><path stroke="#ffffff" stroke-width="4.0" stroke-linejoin="round" stroke-linecap="butt" d="m142.37007 138.30183l-95.60104 -2.438324l-15.459316 -4.8818817l-10.574802 2.4409485l-2.4409466 8.950119l6.5091877 5.6955414l11.388451 0l9.763779 -4.8818817l31.727032 0l64.68766 2.4383087z" fill-rule="evenodd"/><defs><radialGradient id="p.5" gradientUnits="userSpaceOnUse" gradientTransform="matrix(7.112308177832975 0.0 0.0 7.112308177832975 0.0 0.0)" spreadMethod="pad" cx="13.693684012589586" cy="22.24896135820805" fx="13.693684012589586" fy="22.24896135820805" r="7.112308025360107"><stop offset="0.0" stop-color="#ffffff"/><stop offset="1.0" stop-color="#b3b3b3"/></radialGradient></defs><path fill="url(#p.5)" d="m145.62466 157.0105l-76.01049 -2.4304504l-11.986877 -4.8818817l-8.199474 2.4409485l-1.8923874 8.950119l5.047241 5.6955414l8.829399 0l7.572178 -4.8818817l24.601051 0l53.666664 4.0577393z" fill-rule="evenodd"/><path stroke="#ffffff" stroke-width="4.0" stroke-linejoin="round" stroke-linecap="butt" d="m145.62466 157.0105l-76.01049 -2.4304504l-11.986877 -4.8818817l-8.199474 2.4409485l-1.8923874 8.950119l5.047241 5.6955414l8.829399 0l7.572178 -4.8818817l24.601051 0l53.666664 4.0577393z" fill-rule="evenodd"/></g></svg>