<svg version="1.1" viewBox="0.0 0.0 961.2808398950132 720.9606299212599" fill="none" stroke="none" stroke-linecap="square" stroke-miterlimit="10" xmlns:xlink="http://www.w3.org/1999/xlink" xmlns="http://www.w3.org/2000/svg"><clipPath id="p.0"><path d="m0 0l961.2808 0l0 720.96063l-961.2808 0l0 -720.96063z" clip-rule="nonzero"/></clipPath><g clip-path="url(#p.0)"><path fill="#000000" fill-opacity="0.0" d="m0 0l961.2808 0l0 720.96063l-961.2808 0z" fill-rule="evenodd"/><path fill="#000000" d="m137.85954 452.5555l0 -175.11813l0 0c0 -96.71504 114.32602 -175.1181 255.35432 -175.1181c141.02832 0 255.35431 78.40305 255.35431 175.1181l0 175.11813z" fill-rule="evenodd"/><path stroke="#000000" stroke-width="1.0" stroke-linejoin="round" stroke-linecap="butt" d="m137.85954 452.5555l0 -175.11813l0 0c0 -96.71504 114.32602 -175.1181 255.35432 -175.1181c141.02832 0 255.35431 78.40305 255.35431 175.1181l0 175.11813z" fill-rule="evenodd"/><path fill="#000000" d="m709.2677 340.7012l0 -88.06299l0 0c0 -48.63585 53.182922 -88.063 118.787415 -88.063c65.60449 0 118.787415 39.427155 118.787415 88.063l0 88.06299z" fill-rule="evenodd"/><path stroke="#000000" stroke-width="1.0" stroke-linejoin="round" stroke-linecap="butt" d="m709.2677 340.7012l0 -88.06299l0 0c0 -48.63585 53.182922 -88.063 118.787415 -88.063c65.60449 0 118.787415 39.427155 118.787415 88.063l0 88.06299z" fill-rule="evenodd"/><path fill="#000000" d="m137.85718 457.1096l99.27559 0l0 87.653534l-99.27559 0z" fill-rule="evenodd"/><path stroke="#000000" stroke-width="1.0" stroke-linejoin="round" stroke-linecap="butt" d="m137.85718 457.1096l99.27559 0l0 87.653534l-99.27559 0z" fill-rule="evenodd"/><path fill="#000000" d="m549.2919 457.1096l99.27557 0l0 87.653534l-99.27557 0z" fill-rule="evenodd"/><path stroke="#000000" stroke-width="1.0" stroke-linejoin="round" stroke-linecap="butt" d="m549.2919 457.1096l99.27557 0l0 87.653534l-99.27557 0z" fill-rule="evenodd"/><path fill="#000000" d="m929.4113 348.98035l0 43.826782l0 0c0 24.204865 -46.766846 43.82675 -104.456665 43.82675c-57.68982 0 -104.456726 -19.621887 -104.456726 -43.82675l0 -43.826782z" fill-rule="evenodd"/><path stroke="#000000" stroke-width="1.0" stroke-linejoin="round" stroke-linecap="butt" d="m929.4113 348.98035l0 43.826782l0 0c0 24.204865 -46.766846 43.82675 -104.456665 43.82675c-57.68982 0 -104.456726 -19.621887 -104.456726 -43.82675l0 -43.826782z" fill-rule="evenodd"/><path fill="#000000" d="m14.43832 394.35767l115.80142 -14.549438l0 72.747284l-115.80142 0z" fill-rule="evenodd"/><path stroke="#000000" stroke-width="1.0" stroke-linejoin="round" stroke-linecap="butt" d="m14.43832 394.35767l115.80142 -14.549438l0 72.747284l-115.80142 0z" fill-rule="evenodd"/><path fill="#000000" d="m656.58276 338.36746l46.851746 -17.530182l0 87.65091l-46.851746 0z" fill-rule="evenodd"/><path stroke="#000000" stroke-width="1.0" stroke-linejoin="round" stroke-linecap="butt" d="m656.58276 338.36746l46.851746 -17.530182l0 87.65091l-46.851746 0z" fill-rule="evenodd"/><path fill="#ffffff" d="m761.4319 293.02396l0 0c0 -24.204865 12.1623535 -43.826782 27.165344 -43.826782l0 0c7.204712 0 14.114319 4.617447 19.208801 12.836578c5.0944824 8.219116 7.956543 19.366608 7.956543 30.990204l0 0c0 24.204865 -12.1623535 43.82675 -27.165344 43.82675l0 0c-15.002991 0 -27.165344 -19.621887 -27.165344 -43.82675z" fill-rule="evenodd"/><path stroke="#000000" stroke-width="1.0" stroke-linejoin="round" stroke-linecap="butt" d="m761.4319 293.02396l0 0c0 -24.204865 12.1623535 -43.826782 27.165344 -43.826782l0 0c7.204712 0 14.114319 4.617447 19.208801 12.836578c5.0944824 8.219116 7.956543 19.366608 7.956543 30.990204l0 0c0 24.204865 -12.1623535 43.82675 -27.165344 43.82675l0 0c-15.002991 0 -27.165344 -19.621887 -27.165344 -43.82675z" fill-rule="evenodd"/><path fill="#ffffff" d="m825.8787 293.02396l0 0c0 -24.204865 12.1623535 -43.826782 27.165344 -43.826782l0 0c7.204712 0 14.114319 4.617447 19.208801 12.836578c5.0944824 8.219116 7.956543 19.366608 7.956543 30.990204l0 0c0 24.204865 -12.1623535 43.82675 -27.165344 43.82675l0 0c-15.002991 0 -27.165344 -19.621887 -27.165344 -43.82675z" fill-rule="evenodd"/><path stroke="#000000" stroke-width="1.0" stroke-linejoin="round" stroke-linecap="butt" d="m825.8787 293.02396l0 0c0 -24.204865 12.1623535 -43.826782 27.165344 -43.826782l0 0c7.204712 0 14.114319 4.617447 19.208801 12.836578c5.0944824 8.219116 7.956543 19.366608 7.956543 30.990204l0 0c0 24.204865 -12.1623535 43.82675 -27.165344 43.82675l0 0c-15.002991 0 -27.165344 -19.621887 -27.165344 -43.82675z" fill-rule="evenodd"/><path fill="#000000" fill-opacity="0.0" d="m761.4319 293.02396l64.44092 0" fill-rule="evenodd"/><path stroke="#000000" stroke-width="1.0" stroke-linejoin="round" stroke-linecap="butt" d="m761.4319 293.02396l64.44092 0" fill-rule="evenodd"/><path fill="#000000" fill-opacity="0.0" d="m825.8787 293.02396l54.33069 0" fill-rule="evenodd"/><path stroke="#000000" stroke-width="1.0" stroke-linejoin="round" stroke-linecap="butt" d="m825.8787 293.02396l54.33069 0" fill-rule="evenodd"/><path fill="#000000" d="m799.8378 295.76355l-0.03149414 12.393677l0 0c-0.01739502 6.844879 -4.402893 12.393707 -9.795288 12.393707c-5.392395 0 -9.749695 -5.548828 -9.7323 -12.393707l0.03149414 -12.393677z" fill-rule="evenodd"/><path stroke="#000000" stroke-width="1.0" stroke-linejoin="round" stroke-linecap="butt" d="m799.8378 295.76355l-0.03149414 12.393677l0 0c-0.01739502 6.844879 -4.402893 12.393707 -9.795288 12.393707c-5.392395 0 -9.749695 -5.548828 -9.7323 -12.393707l0.03149414 -12.393677z" fill-rule="evenodd"/><path fill="#000000" d="m862.8427 295.76355l-0.03149414 12.393677l0 0c-0.01739502 6.844879 -4.402893 12.393707 -9.795288 12.393707c-5.392395 0 -9.749695 -5.548828 -9.7323 -12.393707l0.03149414 -12.393677z" fill-rule="evenodd"/><path stroke="#000000" stroke-width="1.0" stroke-linejoin="round" stroke-linecap="butt" d="m862.8427 295.76355l-0.03149414 12.393677l0 0c-0.01739502 6.844879 -4.402893 12.393707 -9.795288 12.393707c-5.392395 0 -9.749695 -5.548828 -9.7323 -12.393707l0.03149414 -12.393677z" fill-rule="evenodd"/></g></svg>