<svg version="1.1" viewBox="0.0 0.0 960.0 720.0" fill="none" stroke="none" stroke-linecap="square" stroke-miterlimit="10" xmlns:xlink="http://www.w3.org/1999/xlink" xmlns="http://www.w3.org/2000/svg"><clipPath id="p.0"><path d="m0 0l960.0 0l0 720.0l-960.0 0l0 -720.0z" clip-rule="nonzero"/></clipPath><g clip-path="url(#p.0)"><path fill="#000000" fill-opacity="0.0" d="m0 0l960.0 0l0 720.0l-960.0 0z" fill-rule="evenodd"/><path fill="#000000" d="m79.55643 454.4357l0 0c0 -18.186249 30.254272 -32.92914 67.574814 -32.92914l0 0c37.320526 0 67.5748 14.742889 67.5748 32.92914l0 0c0 18.186249 -30.254272 32.92914 -67.5748 32.92914l0 0c-37.32054 0 -67.574814 -14.742889 -67.574814 -32.92914z" fill-rule="evenodd"/><path stroke="#000000" stroke-width="4.0" stroke-linejoin="round" stroke-linecap="butt" d="m79.55643 454.4357l0 0c0 -18.186249 30.254272 -32.92914 67.574814 -32.92914l0 0c37.320526 0 67.5748 14.742889 67.5748 32.92914l0 0c0 18.186249 -30.254272 32.92914 -67.5748 32.92914l0 0c-37.32054 0 -67.574814 -14.742889 -67.574814 -32.92914z" fill-rule="evenodd"/><path fill="#000000" fill-opacity="0.0" d="m214.70604 454.4357l-1.1338654 -288.25195" fill-rule="evenodd"/><path stroke="#000000" stroke-width="4.0" stroke-linejoin="round" stroke-linecap="butt" d="m214.70604 454.4357l-1.1338654 -288.25195" fill-rule="evenodd"/><path fill="#000000" d="m321.82678 461.6483l0 0c0 -18.186249 30.254272 -32.92914 67.5748 -32.92914l0 0c37.320526 0 67.5748 14.742889 67.5748 32.92914l0 0c0 18.18628 -30.254272 32.92914 -67.5748 32.92914l0 0c-37.320526 0 -67.5748 -14.742859 -67.5748 -32.92914z" fill-rule="evenodd"/><path stroke="#000000" stroke-width="4.0" stroke-linejoin="round" stroke-linecap="butt" d="m321.82678 461.6483l0 0c0 -18.186249 30.254272 -32.92914 67.5748 -32.92914l0 0c37.320526 0 67.5748 14.742889 67.5748 32.92914l0 0c0 18.18628 -30.254272 32.92914 -67.5748 32.92914l0 0c-37.320526 0 -67.5748 -14.742859 -67.5748 -32.92914z" fill-rule="evenodd"/><path fill="#000000" fill-opacity="0.0" d="m456.97638 461.6483l-1.1338501 -288.25195" fill-rule="evenodd"/><path stroke="#000000" stroke-width="4.0" stroke-linejoin="round" stroke-linecap="butt" d="m456.97638 461.6483l-1.1338501 -288.25195" fill-rule="evenodd"/><path fill="#000000" fill-opacity="0.0" d="m209.16536 166.18373l424.7874 5.8897552" fill-rule="evenodd"/><path stroke="#000000" stroke-width="12.0" stroke-linejoin="round" stroke-linecap="butt" d="m209.16536 166.18373l424.7874 5.8897552" fill-rule="evenodd"/><path fill="#000000" fill-opacity="0.0" d="m211.46457 201.87927l424.47244 6.7086487" fill-rule="evenodd"/><path stroke="#000000" stroke-width="12.0" stroke-linejoin="round" stroke-linecap="butt" d="m211.46457 201.87927l424.47244 6.7086487" fill-rule="evenodd"/><path fill="#000000" d="m498.24146 461.6483l0 0c0 -18.186249 30.254272 -32.92914 67.57483 -32.92914l0 0c37.320496 0 67.57477 14.742889 67.57477 32.92914l0 0c0 18.18628 -30.254272 32.92914 -67.57477 32.92914l0 0c-37.320557 0 -67.57483 -14.742859 -67.57483 -32.92914z" fill-rule="evenodd"/><path stroke="#000000" stroke-width="4.0" stroke-linejoin="round" stroke-linecap="butt" d="m498.24146 461.6483l0 0c0 -18.186249 30.254272 -32.92914 67.57483 -32.92914l0 0c37.320496 0 67.57477 14.742889 67.57477 32.92914l0 0c0 18.18628 -30.254272 32.92914 -67.57477 32.92914l0 0c-37.320557 0 -67.57483 -14.742859 -67.57483 -32.92914z" fill-rule="evenodd"/><path fill="#000000" fill-opacity="0.0" d="m633.39105 461.6483l-1.1338501 -288.25195" fill-rule="evenodd"/><path stroke="#000000" stroke-width="4.0" stroke-linejoin="round" stroke-linecap="butt" d="m633.39105 461.6483l-1.1338501 -288.25195" fill-rule="evenodd"/><path fill="#000000" d="m743.7533 468.8609l0 0c0 -18.18628 30.254272 -32.92914 67.57477 -32.92914l0 0c37.320557 0 67.57483 14.742859 67.57483 32.92914l0 0c0 18.186249 -30.254272 32.92914 -67.57483 32.92914l0 0c-37.320496 0 -67.57477 -14.742889 -67.57477 -32.92914z" fill-rule="evenodd"/><path stroke="#000000" stroke-width="4.0" stroke-linejoin="round" stroke-linecap="butt" d="m743.7533 468.8609l0 0c0 -18.18628 30.254272 -32.92914 67.57477 -32.92914l0 0c37.320557 0 67.57483 14.742859 67.57483 32.92914l0 0c0 18.186249 -30.254272 32.92914 -67.57483 32.92914l0 0c-37.320496 0 -67.57477 -14.742889 -67.57477 -32.92914z" fill-rule="evenodd"/><path fill="#000000" fill-opacity="0.0" d="m878.9029 468.8609l-1.1338501 -288.25198" fill-rule="evenodd"/><path stroke="#000000" stroke-width="4.0" stroke-linejoin="round" stroke-linecap="butt" d="m878.9029 468.8609l-1.1338501 -288.25198" fill-rule="evenodd"/><path fill="#000000" fill-opacity="0.0" d="m631.09186 173.39633l247.81104 7.2125854" fill-rule="evenodd"/><path stroke="#000000" stroke-width="12.0" stroke-linejoin="round" stroke-linecap="butt" d="m631.09186 173.39633l247.81104 7.2125854" fill-rule="evenodd"/><path fill="#000000" fill-opacity="0.0" d="m633.39105 209.09186l243.21265 5.7322845" fill-rule="evenodd"/><path stroke="#000000" stroke-width="12.0" stroke-linejoin="round" stroke-linecap="butt" d="m633.39105 209.09186l243.21265 5.7322845" fill-rule="evenodd"/></g></svg>